# xmcd
# Track frame offsets:
# 150
# 14221
# 29573
# 40352
# 58614
# 73221
# 89240
# 112726
# 126561
# 141436
#
# Disc length: 2087 seconds
# Revision: 0
# Processed by: cddbd v1.5.2PL0 Copyright (c) Steve Scherf et al.
# Submitted via: VisiTrax 2.11.1.266 - For more info visit www.synapsa.com
#
DISCID=a208250a
DTITLE=Cina Samuelson - Cina Samuelson - Laugh Love and Live
DYEAR=2007
DGENRE=Country
TTITLE0=Your Little Fun
TTITLE1=If, How Or When
TTITLE2=Up And Down
TTITLE3=Don't Worry
TTITLE4=Are You The Man
TTITLE5=Laugh, Love and Live
TTITLE6=The Best For You
TTITLE7=How Can They Tell
TTITLE8=More Than A Mother
TTITLE9=Oh I'm In Love
EXTD=2007 CCM www.cinasamuelson.com
EXTT0=
EXTT1=
EXTT2=
EXTT3=
EXTT4=
EXTT5=
EXTT6=
EXTT7=
EXTT8=
EXTT9=
PLAYORDER=
